#define ac_width 12
#define ac_height 13
static unsigned char ac_bits[] = {
   0x00, 0x00, 0x00, 0x00, 0x60, 0x00, 0xf0, 0x01, 0x78, 0x00, 0x7e, 0x00,
   0x78, 0x00, 0xf0, 0x01, 0x60, 0x00, 0x00, 0x00, 0x00, 0x00, 0x00, 0x00,
   0x00, 0x00 };
