#define rmtall_width 12
#define rmtall_height 12
static char rmtall_bits[] = {
  0x00, 0x00, 0x6C, 0x03, 0x6C, 0x03, 0x6C, 0x03, 0x00, 0x00, 0xFC, 0x03, 
  0xFC, 0x03, 0xFC, 0x03, 0xFC, 0x03, 0xFC, 0x03, 0x00, 0x00, 0x00, 0x00, 
  };
