#define temp_width 10
#define temp_height 15
static unsigned char temp_bits[] = {
   0x00, 0x00, 0x10, 0x00, 0xb8, 0x00, 0x38, 0x00, 0xa8, 0x00, 0x28, 0x00,
   0x28, 0x00, 0x44, 0x00, 0x28, 0x00, 0x10, 0x00, 0x00, 0x00, 0x00, 0x00,
   0x00, 0x00, 0x00, 0x00, 0x00, 0x00 };
